<svg width="12" height="13" viewBox="0 0 12 13" fill="none" xmlns="http://www.w3.org/2000/svg">
    <path d="M8.42443 0.875714L3.57815 0.873054C1.60858 0.871973 0.00534488 2.47571 0.00426234 4.44805L0.00159866 9.30116C0.000516116 11.2735 1.60199 12.879 3.57156 12.8801L8.41784 12.8827C10.3874 12.8838 11.9906 11.2801 11.9917 9.30774L11.9944 4.45463C11.9955 2.48229 10.394 0.876795 8.42443 0.875714ZM10.7855 9.30707C10.7848 10.6155 9.72504 11.6755 8.4185 11.6748L3.57222 11.6722C2.26568 11.6714 1.20709 10.6102 1.2078 9.30182L1.21047 4.44871C1.21119 3.14031 2.27095 2.08024 3.57749 2.08096L8.42376 2.08362C9.7303 2.08434 10.7889 3.14557 10.7882 4.45397L10.7855 9.30707Z" fill="#07203D"></path>
    <path d="M5.99969 3.7727C4.28976 3.77176 2.89786 5.16409 2.89692 6.87642C2.89598 8.58874 4.28635 9.98262 5.99628 9.98356C7.70622 9.9845 9.09812 8.59216 9.09906 6.87982C9.1 5.16748 7.70963 3.77364 5.99969 3.7727ZM5.99695 8.77568C4.95043 8.7751 4.10255 7.92509 4.10312 6.8771C4.1037 5.82911 4.95254 4.98003 5.99903 4.9806C7.04554 4.98118 7.89343 5.83119 7.89285 6.87918C7.89228 7.92715 7.04344 8.77625 5.99695 8.77568Z" fill="#07203D"></path>
    <path d="M9.10621 4.80015C9.65901 4.80045 10.1074 4.35194 10.1077 3.79836C10.108 3.24478 9.66011 2.79577 9.10731 2.79547C8.55452 2.79517 8.10614 3.24368 8.10583 3.79726C8.10553 4.35084 8.55341 4.79985 9.10621 4.80015Z" fill="#07203D"></path>
</svg>