<svg width="13" height="13" viewBox="0 0 13 13" fill="none" xmlns="http://www.w3.org/2000/svg">
    <path fill-rule="evenodd" clip-rule="evenodd" d="M2.38606 0.888977C3.17074 0.889408 3.83115 1.55054 3.83072 2.33522C3.83026 3.16119 3.12783 3.80094 2.38447 3.77988C1.62044 3.80011 0.939365 3.1596 0.939818 2.33363C0.919605 1.52829 1.58075 0.888535 2.38606 0.888977ZM3.18493 12.6595L1.53298 12.6586C1.30585 12.6585 1.1201 12.4725 1.12023 12.2454L1.12419 5.01816C1.12432 4.79102 1.28961 4.60526 1.51675 4.60539L3.18933 4.60631C3.41646 4.60643 3.60221 4.79238 3.60209 5.01952L3.59811 12.2674C3.598 12.4739 3.41207 12.6596 3.18493 12.6595ZM10.2309 4.40367C11.7589 4.40451 12.894 5.6028 12.8931 7.13084L12.9138 7.13086L12.9108 12.4584C12.9108 12.541 12.7868 12.6648 12.7042 12.6648L10.6393 12.6636C10.5567 12.6636 10.4329 12.5396 10.4329 12.457L10.4353 8.0174C10.4356 7.62507 10.3325 7.27398 10.0848 7.02605C9.81655 6.75746 9.46559 6.61273 9.07326 6.61251C8.30923 6.63273 7.7307 7.27255 7.73028 8.03657L7.72783 12.4969C7.72779 12.5794 7.60383 12.662 7.52124 12.6619L5.24982 12.6607C5.16723 12.6606 5.04337 12.578 5.04341 12.4954L5.04764 4.79318C5.04769 4.68993 5.17165 4.6074 5.25424 4.60745L7.31918 4.60858C7.40178 4.60862 7.52561 4.7326 7.52557 4.8152L7.52511 5.64116L7.73173 5.43477C8.16572 4.79487 8.97127 4.40298 9.79723 4.40344L10.2309 4.40367Z" fill="black"></path>
</svg>