<svg width="13" height="11" viewBox="0 0 13 11" fill="none" xmlns="http://www.w3.org/2000/svg">
    <path fill-rule="evenodd" clip-rule="evenodd" d="M12.7706 2.04152C12.5042 2.15964 12.2277 2.25278 11.944 2.32017C12.2567 2.02289 12.4919 1.65097 12.6247 1.23577C12.6627 1.11723 12.5341 1.01465 12.4272 1.07806C12.0324 1.31226 11.6072 1.48789 11.1634 1.60011C11.1376 1.60662 11.1111 1.60991 11.0844 1.6099C11.0036 1.60985 10.925 1.57976 10.8632 1.52517C10.3913 1.1082 9.78421 0.87837 9.15375 0.878024C8.88095 0.877874 8.60548 0.920304 8.335 1.00415C7.49694 1.26394 6.85003 1.95574 6.64672 2.8096C6.57044 3.12986 6.54966 3.45046 6.58491 3.76244C6.58895 3.7983 6.57202 3.82331 6.56158 3.83504C6.54325 3.8556 6.51726 3.86738 6.49029 3.86737C6.48727 3.86737 6.48418 3.86722 6.48111 3.86692C4.64703 3.69527 2.99355 2.80946 1.82522 1.37271C1.76564 1.29943 1.65131 1.30835 1.60375 1.38995C1.37459 1.78315 1.25336 2.23295 1.25311 2.69072C1.25272 3.39227 1.53382 4.05355 2.02244 4.53579C1.81688 4.48687 1.61793 4.40988 1.43315 4.30697C1.34375 4.25717 1.23368 4.32105 1.23237 4.42348C1.219 5.46567 1.82781 6.39337 2.74037 6.81145C2.72199 6.81188 2.70361 6.81208 2.6852 6.81207C2.54051 6.81199 2.39402 6.79792 2.24984 6.77024C2.14914 6.75093 2.06449 6.84655 2.0957 6.94435C2.39147 7.87079 3.18751 8.55398 4.14049 8.70953C3.34921 9.24082 2.42794 9.52079 1.46924 9.52026L1.17037 9.51992C1.07828 9.51987 1.00036 9.57994 0.976848 9.66925C0.953684 9.75721 0.996212 9.85003 1.07471 9.89581C2.15467 10.526 3.38672 10.8594 4.63822 10.8601C5.73369 10.8607 6.75853 10.6436 7.68429 10.2147C8.53297 9.82162 9.28306 9.25941 9.9137 8.54372C10.5012 7.87702 10.9607 7.10727 11.2795 6.25588C11.5834 5.44432 11.7442 4.57827 11.7447 3.75135L11.7447 3.71195C11.7447 3.57918 11.8048 3.45428 11.9095 3.36929C12.3066 3.04671 12.6526 2.66692 12.9376 2.24047C13.0129 2.12787 12.8943 1.98663 12.7706 2.04152Z" fill="#07203D"></path>
</svg>